<svg width="5000" height="5000" viewBox="0 0 5000 5000" fill="none" xmlns="http://www.w3.org/2000/svg"  version="1.1">
<rect x="100" y="100" width="10" height="10" style="fill:yellow;stroke:red;stroke-width:.30;fill-opacity:0.76;stroke-opacity:0.90"/>
<rect x="110" y="110" width="10" height="10" style="fill:yellow;stroke:red;stroke-width:.30;fill-opacity:0.76;stroke-opacity:0.90"/>
<rect x="120" y="120" width="10" height="10" style="fill:yellow;stroke:red;stroke-width:.30;fill-opacity:0.76;stroke-opacity:0.90"/>
<rect x="130" y="130" width="10" height="10" style="fill:yellow;stroke:red;stroke-width:.30;fill-opacity:0.76;stroke-opacity:0.90"/>
<rect x="140" y="140" width="10" height="10" style="fill:yellow;stroke:red;stroke-width:.30;fill-opacity:0.76;stroke-opacity:0.90"/>
<rect x="150" y="150" width="10" height="10" style="fill:yellow;stroke:red;stroke-width:.30;fill-opacity:0.76;stroke-opacity:0.90"/>
<rect x="160" y="160" width="10" height="10" style="fill:yellow;stroke:red;stroke-width:.30;fill-opacity:0.76;stroke-opacity:0.90"/>
<rect x="170" y="170" width="10" height="10" style="fill:yellow;stroke:red;stroke-width:.30;fill-opacity:0.76;stroke-opacity:0.90"/>
<rect x="180" y="180" width="10" height="10" style="fill:yellow;stroke:red;stroke-width:.30;fill-opacity:0.76;stroke-opacity:0.90"/>
<rect x="190" y="190" width="10" height="10" style="fill:yellow;stroke:red;stroke-width:.30;fill-opacity:0.76;stroke-opacity:0.90"/>
<rect x="200" y="200" width="10" height="10" style="fill:yellow;stroke:red;stroke-width:.30;fill-opacity:0.76;stroke-opacity:0.90"/>
<rect x="210" y="210" width="10" height="10" style="fill:yellow;stroke:red;stroke-width:.30;fill-opacity:0.76;stroke-opacity:0.90"/>
<rect x="220" y="220" width="10" height="10" style="fill:yellow;stroke:red;stroke-width:.30;fill-opacity:0.76;stroke-opacity:0.90"/>
<rect x="230" y="230" width="10" height="10" style="fill:yellow;stroke:red;stroke-width:.30;fill-opacity:0.76;stroke-opacity:0.90"/>
<rect x="240" y="240" width="10" height="10" style="fill:yellow;stroke:red;stroke-width:.30;fill-opacity:0.76;stroke-opacity:0.90"/>
<rect x="250" y="250" width="10" height="10" style="fill:yellow;stroke:red;stroke-width:.30;fill-opacity:0.76;stroke-opacity:0.90"/>
<rect x="260" y="260" width="10" height="10" style="fill:yellow;stroke:red;stroke-width:.30;fill-opacity:0.76;stroke-opacity:0.90"/>
<rect x="270" y="270" width="10" height="10" style="fill:yellow;stroke:red;stroke-width:.30;fill-opacity:0.76;stroke-opacity:0.90"/>
<rect x="280" y="280" width="10" height="10" style="fill:yellow;stroke:red;stroke-width:.30;fill-opacity:0.76;stroke-opacity:0.90"/>
<rect x="290" y="290" width="10" height="10" style="fill:yellow;stroke:red;stroke-width:.30;fill-opacity:0.76;stroke-opacity:0.90"/>
<rect x="300" y="300" width="10" height="10" style="fill:yellow;stroke:red;stroke-width:.30;fill-opacity:0.76;stroke-opacity:0.90"/>
<rect x="310" y="310" width="10" height="10" style="fill:yellow;stroke:red;stroke-width:.30;fill-opacity:0.76;stroke-opacity:0.90"/>
<rect x="320" y="320" width="10" height="10" style="fill:yellow;stroke:red;stroke-width:.30;fill-opacity:0.76;stroke-opacity:0.90"/>
<rect x="330" y="330" width="10" height="10" style="fill:yellow;stroke:red;stroke-width:.30;fill-opacity:0.76;stroke-opacity:0.90"/>
<rect x="340" y="340" width="10" height="10" style="fill:yellow;stroke:red;stroke-width:.30;fill-opacity:0.76;stroke-opacity:0.90"/>
<rect x="350" y="350" width="10" height="10" style="fill:yellow;stroke:red;stroke-width:.30;fill-opacity:0.76;stroke-opacity:0.90"/>
<rect x="360" y="360" width="10" height="10" style="fill:yellow;stroke:red;stroke-width:.30;fill-opacity:0.76;stroke-opacity:0.90"/>
<rect x="370" y="370" width="10" height="10" style="fill:yellow;stroke:red;stroke-width:.30;fill-opacity:0.76;stroke-opacity:0.90"/>
<rect x="380" y="380" width="10" height="10" style="fill:yellow;stroke:red;stroke-width:.30;fill-opacity:0.76;stroke-opacity:0.90"/>
<rect x="390" y="390" width="10" height="10" style="fill:yellow;stroke:red;stroke-width:.30;fill-opacity:0.76;stroke-opacity:0.90"/>
<rect x="400" y="400" width="10" height="10" style="fill:yellow;stroke:red;stroke-width:.30;fill-opacity:0.76;stroke-opacity:0.90"/>
<rect x="410" y="410" width="10" height="10" style="fill:yellow;stroke:red;stroke-width:.30;fill-opacity:0.76;stroke-opacity:0.90"/>
<rect x="420" y="420" width="10" height="10" style="fill:yellow;stroke:red;stroke-width:.30;fill-opacity:0.76;stroke-opacity:0.90"/>
<rect x="430" y="430" width="10" height="10" style="fill:yellow;stroke:red;stroke-width:.30;fill-opacity:0.76;stroke-opacity:0.90"/>
<rect x="440" y="440" width="10" height="10" style="fill:yellow;stroke:red;stroke-width:.30;fill-opacity:0.76;stroke-opacity:0.90"/>
<rect x="450" y="450" width="10" height="10" style="fill:yellow;stroke:red;stroke-width:.30;fill-opacity:0.76;stroke-opacity:0.90"/>
<rect x="460" y="460" width="10" height="10" style="fill:yellow;stroke:red;stroke-width:.30;fill-opacity:0.76;stroke-opacity:0.90"/>
<rect x="470" y="470" width="10" height="10" style="fill:yellow;stroke:red;stroke-width:.30;fill-opacity:0.76;stroke-opacity:0.90"/>
<rect x="480" y="480" width="10" height="10" style="fill:yellow;stroke:red;stroke-width:.30;fill-opacity:0.76;stroke-opacity:0.90"/>
<rect x="490" y="490" width="10" height="10" style="fill:yellow;stroke:red;stroke-width:.30;fill-opacity:0.76;stroke-opacity:0.90"/>
<rect x="500" y="500" width="10" height="10" style="fill:yellow;stroke:red;stroke-width:.30;fill-opacity:0.76;stroke-opacity:0.90"/>
<rect x="510" y="510" width="10" height="10" style="fill:yellow;stroke:red;stroke-width:.30;fill-opacity:0.76;stroke-opacity:0.90"/>
<rect x="520" y="520" width="10" height="10" style="fill:yellow;stroke:red;stroke-width:.30;fill-opacity:0.76;stroke-opacity:0.90"/>
<rect x="530" y="530" width="10" height="10" style="fill:yellow;stroke:red;stroke-width:.30;fill-opacity:0.76;stroke-opacity:0.90"/>
<rect x="540" y="540" width="10" height="10" style="fill:yellow;stroke:red;stroke-width:.30;fill-opacity:0.76;stroke-opacity:0.90"/>
<rect x="550" y="550" width="10" height="10" style="fill:yellow;stroke:red;stroke-width:.30;fill-opacity:0.76;stroke-opacity:0.90"/>
<rect x="560" y="560" width="10" height="10" style="fill:yellow;stroke:red;stroke-width:.30;fill-opacity:0.76;stroke-opacity:0.90"/>
<rect x="570" y="570" width="10" height="10" style="fill:yellow;stroke:red;stroke-width:.30;fill-opacity:0.76;stroke-opacity:0.90"/>
<rect x="580" y="580" width="10" height="10" style="fill:yellow;stroke:red;stroke-width:.30;fill-opacity:0.76;stroke-opacity:0.90"/>
<rect x="590" y="590" width="10" height="10" style="fill:yellow;stroke:red;stroke-width:.30;fill-opacity:0.76;stroke-opacity:0.90"/>
<rect x="600" y="600" width="10" height="10" style="fill:yellow;stroke:red;stroke-width:.30;fill-opacity:0.76;stroke-opacity:0.90"/>
<rect x="610" y="610" width="10" height="10" style="fill:yellow;stroke:red;stroke-width:.30;fill-opacity:0.76;stroke-opacity:0.90"/>
<rect x="620" y="620" width="10" height="10" style="fill:yellow;stroke:red;stroke-width:.30;fill-opacity:0.76;stroke-opacity:0.90"/>
<rect x="630" y="630" width="10" height="10" style="fill:yellow;stroke:red;stroke-width:.30;fill-opacity:0.76;stroke-opacity:0.90"/>
<rect x="640" y="640" width="10" height="10" style="fill:yellow;stroke:red;stroke-width:.30;fill-opacity:0.76;stroke-opacity:0.90"/>
<rect x="650" y="650" width="10" height="10" style="fill:yellow;stroke:red;stroke-width:.30;fill-opacity:0.76;stroke-opacity:0.90"/>
<rect x="660" y="660" width="10" height="10" style="fill:yellow;stroke:red;stroke-width:.30;fill-opacity:0.76;stroke-opacity:0.90"/>
<rect x="670" y="670" width="10" height="10" style="fill:yellow;stroke:red;stroke-width:.30;fill-opacity:0.76;stroke-opacity:0.90"/>
<rect x="680" y="680" width="10" height="10" style="fill:yellow;stroke:red;stroke-width:.30;fill-opacity:0.76;stroke-opacity:0.90"/>
<rect x="690" y="690" width="10" height="10" style="fill:yellow;stroke:red;stroke-width:.30;fill-opacity:0.76;stroke-opacity:0.90"/>
<rect x="700" y="700" width="10" height="10" style="fill:yellow;stroke:red;stroke-width:.30;fill-opacity:0.76;stroke-opacity:0.90"/>
<rect x="710" y="710" width="10" height="10" style="fill:yellow;stroke:red;stroke-width:.30;fill-opacity:0.76;stroke-opacity:0.90"/>
<rect x="720" y="720" width="10" height="10" style="fill:yellow;stroke:red;stroke-width:.30;fill-opacity:0.76;stroke-opacity:0.90"/>
<rect x="730" y="730" width="10" height="10" style="fill:yellow;stroke:red;stroke-width:.30;fill-opacity:0.76;stroke-opacity:0.90"/>
<rect x="740" y="740" width="10" height="10" style="fill:yellow;stroke:red;stroke-width:.30;fill-opacity:0.76;stroke-opacity:0.90"/>
<rect x="750" y="750" width="10" height="10" style="fill:yellow;stroke:red;stroke-width:.30;fill-opacity:0.76;stroke-opacity:0.90"/>
<rect x="760" y="760" width="10" height="10" style="fill:yellow;stroke:red;stroke-width:.30;fill-opacity:0.76;stroke-opacity:0.90"/>
<rect x="770" y="770" width="10" height="10" style="fill:yellow;stroke:red;stroke-width:.30;fill-opacity:0.76;stroke-opacity:0.90"/>
<rect x="780" y="780" width="10" height="10" style="fill:yellow;stroke:red;stroke-width:.30;fill-opacity:0.76;stroke-opacity:0.90"/>
<rect x="790" y="790" width="10" height="10" style="fill:yellow;stroke:red;stroke-width:.30;fill-opacity:0.76;stroke-opacity:0.90"/>
<rect x="800" y="800" width="10" height="10" style="fill:yellow;stroke:red;stroke-width:.30;fill-opacity:0.76;stroke-opacity:0.90"/>
<rect x="810" y="810" width="10" height="10" style="fill:yellow;stroke:red;stroke-width:.30;fill-opacity:0.76;stroke-opacity:0.90"/>
<rect x="820" y="820" width="10" height="10" style="fill:yellow;stroke:red;stroke-width:.30;fill-opacity:0.76;stroke-opacity:0.90"/>
<rect x="830" y="830" width="10" height="10" style="fill:yellow;stroke:red;stroke-width:.30;fill-opacity:0.76;stroke-opacity:0.90"/>
<rect x="840" y="840" width="10" height="10" style="fill:yellow;stroke:red;stroke-width:.30;fill-opacity:0.76;stroke-opacity:0.90"/>
<rect x="850" y="850" width="10" height="10" style="fill:yellow;stroke:red;stroke-width:.30;fill-opacity:0.76;stroke-opacity:0.90"/>
<rect x="860" y="860" width="10" height="10" style="fill:yellow;stroke:red;stroke-width:.30;fill-opacity:0.76;stroke-opacity:0.90"/>
<rect x="870" y="870" width="10" height="10" style="fill:yellow;stroke:red;stroke-width:.30;fill-opacity:0.76;stroke-opacity:0.90"/>
<rect x="880" y="880" width="10" height="10" style="fill:yellow;stroke:red;stroke-width:.30;fill-opacity:0.76;stroke-opacity:0.90"/>
<rect x="890" y="890" width="10" height="10" style="fill:yellow;stroke:red;stroke-width:.30;fill-opacity:0.76;stroke-opacity:0.90"/>
<rect x="900" y="900" width="10" height="10" style="fill:yellow;stroke:red;stroke-width:.30;fill-opacity:0.76;stroke-opacity:0.90"/>
<rect x="910" y="910" width="10" height="10" style="fill:yellow;stroke:red;stroke-width:.30;fill-opacity:0.76;stroke-opacity:0.90"/>
<rect x="920" y="920" width="10" height="10" style="fill:yellow;stroke:red;stroke-width:.30;fill-opacity:0.76;stroke-opacity:0.90"/>
<rect x="930" y="930" width="10" height="10" style="fill:yellow;stroke:red;stroke-width:.30;fill-opacity:0.76;stroke-opacity:0.90"/>
<rect x="940" y="940" width="10" height="10" style="fill:yellow;stroke:red;stroke-width:.30;fill-opacity:0.76;stroke-opacity:0.90"/>
<rect x="950" y="950" width="10" height="10" style="fill:yellow;stroke:red;stroke-width:.30;fill-opacity:0.76;stroke-opacity:0.90"/>
<rect x="960" y="960" width="10" height="10" style="fill:yellow;stroke:red;stroke-width:.30;fill-opacity:0.76;stroke-opacity:0.90"/>
<rect x="970" y="970" width="10" height="10" style="fill:yellow;stroke:red;stroke-width:.30;fill-opacity:0.76;stroke-opacity:0.90"/>
<rect x="980" y="980" width="10" height="10" style="fill:yellow;stroke:red;stroke-width:.30;fill-opacity:0.76;stroke-opacity:0.90"/>
<rect x="990" y="990" width="10" height="10" style="fill:yellow;stroke:red;stroke-width:.30;fill-opacity:0.76;stroke-opacity:0.90"/>
<rect x="1000" y="1000" width="10" height="10" style="fill:yellow;stroke:red;stroke-width:.30;fill-opacity:0.76;stroke-opacity:0.90"/>
<rect x="1010" y="1010" width="10" height="10" style="fill:yellow;stroke:red;stroke-width:.30;fill-opacity:0.76;stroke-opacity:0.90"/>
<rect x="1020" y="1020" width="10" height="10" style="fill:yellow;stroke:red;stroke-width:.30;fill-opacity:0.76;stroke-opacity:0.90"/>
<rect x="1030" y="1030" width="10" height="10" style="fill:yellow;stroke:red;stroke-width:.30;fill-opacity:0.76;stroke-opacity:0.90"/>
<rect x="1040" y="1040" width="10" height="10" style="fill:yellow;stroke:red;stroke-width:.30;fill-opacity:0.76;stroke-opacity:0.90"/>
<rect x="1050" y="1050" width="10" height="10" style="fill:yellow;stroke:red;stroke-width:.30;fill-opacity:0.76;stroke-opacity:0.90"/>
<rect x="1060" y="1060" width="10" height="10" style="fill:yellow;stroke:red;stroke-width:.30;fill-opacity:0.76;stroke-opacity:0.90"/>
<rect x="1070" y="1070" width="10" height="10" style="fill:yellow;stroke:red;stroke-width:.30;fill-opacity:0.76;stroke-opacity:0.90"/>
<rect x="1080" y="1080" width="10" height="10" style="fill:yellow;stroke:red;stroke-width:.30;fill-opacity:0.76;stroke-opacity:0.90"/>
<rect x="1090" y="1090" width="10" height="10" style="fill:yellow;stroke:red;stroke-width:.30;fill-opacity:0.76;stroke-opacity:0.90"/>
<rect x="1100" y="1100" width="10" height="10" style="fill:yellow;stroke:red;stroke-width:.30;fill-opacity:0.76;stroke-opacity:0.90"/>

 <circle cx="105" cy="105" r="2" stroke="red" stroke-width="2" fill="blue" />

 <circle cx="1105" cy="1105" r="2" stroke="red" stroke-width="2" fill="blue" />

<line x1="105" y1="105" x2="1105" y2="1105" style="stroke:rgb(0,0,155);stroke-width:1" />

 </svg>
